HIERARCHY
ROOT RootJoint
{
    OFFSET   0.000000   0.000000   0.000000
    CHANNELS 6 Xposition Yposition Zposition Xrotation Yrotation Zrotation
    JOINT pelvis_lowerback
    {
        OFFSET   0.000000   0.093605   0.000000
        CHANNELS 3 Xrotation Yrotation Zrotation
        JOINT lowerback_torso
        {
            OFFSET   0.000000   0.100000   0.000000
            CHANNELS 3 Xrotation Yrotation Zrotation
            JOINT torso_head
            {
                OFFSET   0.000000   0.282350   0.000000
                CHANNELS 3 Xrotation Yrotation Zrotation
                End Site
                {
                    OFFSET   0.000000   0.192650   0.000000
                }
            }
            JOINT rTorso_Clavicle
            {
                OFFSET  -0.001000   0.157500   0.000000
                CHANNELS 3 Xrotation Yrotation Zrotation
                JOINT rShoulder
                {
                    OFFSET  -0.117647   0.000000   0.000000
                    CHANNELS 3 Xrotation Yrotation Zrotation
                    JOINT rElbow
                    {
                        OFFSET  -0.245000   0.000000   0.000000
                        CHANNELS 3 Xrotation Yrotation Zrotation
                        JOINT rWrist
                        {
                            OFFSET  -0.240000   0.000000   0.000000
                            CHANNELS 3 Xrotation Yrotation Zrotation
                            End Site
                            {
                                OFFSET  -0.116353  -0.002500   0.000000
                            }
                        }
                    }
                }
            }
            JOINT lTorso_Clavicle
            {
                OFFSET   0.001000   0.157500   0.000000
                CHANNELS 3 Xrotation Yrotation Zrotation
                JOINT lShoulder
                {
                    OFFSET   0.117647   0.000000   0.000000
                    CHANNELS 3 Xrotation Yrotation Zrotation
                    JOINT lElbow
                    {
                        OFFSET   0.245000   0.000000   0.000000
                        CHANNELS 3 Xrotation Yrotation Zrotation
                        JOINT lWrist
                        {
                            OFFSET   0.240000   0.000000   0.000000
                            CHANNELS 3 Xrotation Yrotation Zrotation
                            End Site
                            {
                                OFFSET   0.116353  -0.002500   0.000000
                            }
                        }
                    }
                }
            }
        }
    }
    JOINT rHip
    {
        OFFSET  -0.100000  -0.051395   0.000000
        CHANNELS 3 Xrotation Yrotation Zrotation
        JOINT rKnee
        {
            OFFSET   0.000000  -0.410000   0.000000
            CHANNELS 3 Xrotation Yrotation Zrotation
            JOINT rAnkle
            {
                OFFSET   0.000000  -0.390000   0.000000
                CHANNELS 3 Xrotation Yrotation Zrotation
                JOINT rToeJoint
                {
                    OFFSET   0.000000  -0.050000   0.130000
                    CHANNELS 3 Xrotation Yrotation Zrotation
                    End Site
                    {
                        OFFSET  -0.010000   0.002000   0.060000
                    }
                }
            }
        }
    }
    JOINT lHip
    {
        OFFSET   0.100000  -0.051395   0.000000
        CHANNELS 3 Xrotation Yrotation Zrotation
        JOINT lKnee
        {
            OFFSET   0.000000  -0.410000   0.000000
            CHANNELS 3 Xrotation Yrotation Zrotation
            JOINT lAnkle
            {
                OFFSET   0.000000  -0.390000   0.000000
                CHANNELS 3 Xrotation Yrotation Zrotation
                JOINT lToeJoint
                {
                    OFFSET   0.000000  -0.050000   0.130000
                    CHANNELS 3 Xrotation Yrotation Zrotation
                    End Site
                    {
                        OFFSET   0.010000   0.002000   0.060000
                    }
                }
            }
        }
    }
}
MOTION
Frames: 14
Frame Time:   0.008333
 -2.372230   0.908082   4.039884  -1.253781   6.448521  -0.367364  -2.185031   0.795344  -2.004435   2.601943  -1.271306   1.777135  -1.512449  -0.752556   0.381247   5.692351  -3.474910  11.650910  11.147506   4.264375  55.255703  -0.001310  56.288355   0.000451  -3.261344   4.624444 -12.581264   5.923103   1.307482  -9.475737  12.594445 -12.998416 -53.895242  -0.046448 -80.988448  -0.045022  -1.534940  -5.897107  13.743863   3.940191  -4.281274  -7.793325   6.163223  -0.000017   0.000061  -8.230112  -4.821746   4.765593  -0.254656  -0.000102  -0.000010   5.946264  -0.762075   8.694261   5.684657   0.000003   0.000003 -11.259347   2.619762   1.671151   1.078193   0.000124   0.000011
 -2.372498   0.908046   4.040126  -1.309988   6.480329  -0.377315  -2.172513   0.771900  -2.008693   2.607737  -1.282747   1.766020  -1.491426  -0.733323   0.337595   5.713808  -3.550715  11.582974  11.201530   4.154631  55.349608  -0.000082  55.768188  -0.000886  -3.309157   4.418111 -12.574762   5.885664   1.394964  -9.392004  12.157579 -13.061747 -54.020663  -0.071026 -82.351531  -0.069756  -1.602972  -5.685985  13.826109   4.012830  -4.277231  -7.754516   6.192879  -0.000018   0.000059  -8.276055  -4.857729   4.777421  -0.203933  -0.000096  -0.000008   6.021217  -0.801565   8.734521   5.684283   0.000002   0.000002 -11.289235   2.636095   1.664052   1.150890   0.000092   0.000010
 -2.372785   0.908019   4.040317  -1.357673   6.513520  -0.388635  -2.158732   0.746364  -2.011267   2.605568  -1.297925   1.753163  -1.460531  -0.714969   0.293236   5.720206  -3.620052  11.510674  11.238840   4.059032  55.438727   0.000824  55.300942  -0.001814  -3.337350   4.313488 -12.589886   5.811324   1.469796  -9.303126  11.708995 -13.140877 -54.148628  -0.100153 -83.673632  -0.098745  -1.617347  -5.713116  13.953743   4.074434  -4.274344  -7.713866   6.218935  -0.000018   0.000056  -8.313123  -4.893091   4.786898  -0.166148  -0.000087  -0.000006   6.087425  -0.840068   8.776116   5.674236   0.000004   0.000003 -11.307844   2.649844   1.660681   1.210650   0.000065   0.000009
 -2.373085   0.907993   4.040493  -1.398300   6.543287  -0.400405  -2.148401   0.718040  -2.013308   2.593555  -1.317474   1.739986  -1.428889  -0.697602   0.251117   5.716995  -3.679763  11.438343  11.266096   3.973969  55.519688   0.001503  54.870012  -0.002475  -3.355810   4.252835 -12.610699   5.720518   1.528250  -9.215706  11.270954 -13.223444 -54.268282  -0.133854 -84.919713  -0.132109  -1.607764  -5.835581  14.095151   4.128852  -4.270493  -7.672956   6.240485  -0.000018   0.000051  -8.346973  -4.925312   4.795433  -0.133826  -0.000079  -0.000005   6.147491  -0.875186   8.817673   5.659643   0.000006   0.000003 -11.321267   2.663510   1.659308   1.259801   0.000044   0.000008
 -2.373392   0.907969   4.040674  -1.434463   6.569259  -0.414735  -2.142924   0.687119  -2.012541   2.573993  -1.340368   1.727935  -1.398922  -0.681434   0.211678   5.707919  -3.732235  11.367448  11.286633   3.896915  55.592956   0.001999  54.470442  -0.002938  -3.369353   4.213661 -12.634796   5.624445   1.575097  -9.132084  10.852164 -13.304792 -54.379742  -0.176765 -86.087182  -0.174639  -1.589055  -5.989856  14.237064   4.178451  -4.265996  -7.629735   6.260596  -0.000017   0.000047  -8.376165  -4.954556   4.804634  -0.111739  -0.000069  -0.000004   6.204611  -0.906559   8.861361   5.642904   0.000008   0.000004 -11.332722   2.677495   1.659487   1.300434   0.000028   0.000007
 -2.373700   0.907944   4.040866  -1.467500   6.591808  -0.430184  -2.142363   0.654843  -2.010299   2.549083  -1.365092   1.717092  -1.371262  -0.666480   0.174943   5.695480  -3.779354  11.298984  11.302599   3.826401  55.659821   0.002337  54.099252  -0.003236  -3.379870   4.187627 -12.661438   5.528969   1.614244  -9.052499  10.456242 -13.382679 -54.483627  -0.240692 -87.178756  -0.238227  -1.566903  -6.152843  14.374976   4.225118  -4.260922  -7.585907   6.279655  -0.000017   0.000042  -8.403828  -4.980784   4.814001  -0.095618  -0.000060  -0.000003   6.259792  -0.934534   8.905604   5.625722   0.000010   0.000004 -11.343787   2.691614   1.660542   1.334118   0.000016   0.000006
 -2.374005   0.907917   4.041069  -1.498247   6.611757  -0.446281  -2.146084   0.622397  -2.006792   2.520704  -1.390350   1.707450  -1.345985  -0.652669   0.140741   5.681198  -3.822261  11.233570  11.315346   3.761443  55.721155   0.002538  53.753989  -0.003395  -3.388328   4.170444 -12.689975   5.437142   1.648198  -8.977272  10.084359 -13.456064 -54.580607  -0.361224 -88.198301  -0.358503  -1.543746  -6.315049  14.507478   4.269725  -4.255658  -7.542079   6.298130  -0.000017   0.000038  -8.430644  -5.004503   4.823595  -0.084224  -0.000051  -0.000002   6.313416  -0.959659   8.949865   5.608961   0.000011   0.000005 -11.355084   2.705511   1.662111   1.362159   0.000007   0.000005
 -2.374312   0.907902   4.041187  -1.521973   6.618782  -0.463859  -2.144251   0.593211  -2.002019   2.514992  -1.415357   1.698361  -1.306926  -0.640476   0.103628   5.675759  -3.909486  11.153000  11.286785   3.708029  55.789862   0.002092  53.729393  -0.002791  -3.434261   3.998313 -12.704763   5.363692   1.732293  -8.884330   9.568845 -13.508544 -54.753570  -1.468903 -89.504033  -1.466241  -1.606202  -6.199386  14.602061   4.298706  -4.249174  -7.499768   6.313719  -0.000016   0.000032  -8.446633  -5.015407   4.835947  -0.077023  -0.000043  -0.000002   6.360599  -0.974842   8.994287   5.581066   0.000015   0.000007 -11.351679   2.722348   1.646676   1.381894   0.000005   0.000004
 -2.374617   0.907895   4.041257  -1.538397   6.622165  -0.482201  -2.139613   0.562269  -1.995349   2.502848  -1.441786   1.689092  -1.260348  -0.629264   0.067761   5.654185  -3.988019  11.065896  11.244483   3.667324  55.854050   0.001676  53.728397  -0.002235  -3.455378   3.947962 -12.729636   5.262997   1.805412  -8.787151   9.054353 -13.570887 -54.923175 -178.985263 -89.239089 -178.982420  -1.626486  -6.257146  14.736100   4.318656  -4.241348  -7.458017   6.323192  -0.000014   0.000027  -8.455072  -5.023862   4.845779  -0.072230  -0.000036  -0.000002   6.399450  -0.987572   9.037414   5.548557   0.000019   0.000009 -11.342245   2.739985   1.634437   1.398479   0.000003   0.000004
 -2.374915   0.907892   4.041315  -1.549694   6.622953  -0.501029  -2.136367   0.529749  -1.987360   2.483453  -1.469996   1.680572  -1.214324  -0.618862   0.034041   5.623596  -4.055681  10.978741  11.196254   3.633770  55.910752   0.001328  53.733106  -0.001774  -3.465635   3.945447 -12.760353   5.152308   1.864691  -8.691307   8.559046 -13.634614 -55.081256 -179.598740 -88.057211 -179.595609  -1.627209  -6.384715  14.879706   4.333602  -4.232671  -7.416976   6.328653  -0.000013   0.000022  -8.459674  -5.030645   4.854613  -0.069522  -0.000029  -0.000001   6.433418  -0.998172   9.079410   5.513832   0.000022   0.000011 -11.330517   2.757942   1.624378   1.412440   0.000001   0.000003
 -2.375203   0.907888   4.041376  -1.557953   6.621924  -0.519973  -2.135964   0.496625  -1.978407   2.458842  -1.498955   1.673092  -1.170939  -0.609283   0.002572   5.588670  -4.115219  10.893851  11.146011   3.604876  55.961254   0.001044  53.740160  -0.001399  -3.471033   3.962912 -12.794592   5.040669   1.914336  -8.598747   8.089484 -13.696285 -55.228164 -179.750389 -86.950815 -179.746985  -1.620334  -6.534383  15.021884   4.346214  -4.223657  -7.376911   6.332012  -0.000011   0.000018  -8.462906  -5.036099   4.863006  -0.068490  -0.000024  -0.000001   6.464862  -1.006939   9.120221   5.478827   0.000024   0.000013 -11.318759   2.775804   1.615750   1.424204  -0.000000   0.000002
 -2.375478   0.907884   4.041449  -1.564528   6.619903  -0.538704  -2.138498   0.463969  -1.968709   2.431068  -1.527554   1.666692  -1.130660  -0.600480  -0.026731   5.552201  -4.168681  10.812446  11.095971   3.579248  56.006795   0.000815  53.748223  -0.001096  -3.473916   3.989933 -12.830957   4.932695   1.957580  -8.510497   7.647980 -13.754361 -55.364934 -179.822170 -85.916942 -179.818567  -1.610597  -6.688241  15.159313   4.357949  -4.214821  -7.338021   6.334478  -0.000009   0.000015  -8.466250  -5.040579   4.870262  -0.068561  -0.000019  -0.000001   6.494919  -1.014306   9.159692   5.444764   0.000026   0.000014 -11.308049   2.793152   1.608125   1.434135  -0.000001   0.000002
 -2.375740   0.907878   4.041532  -1.570168   6.617624  -0.556886  -2.143499   0.432664  -1.958563   2.401743  -1.554926   1.661313  -1.093469  -0.592380  -0.053996   5.515785  -4.217338  10.735203  11.047351   3.556101  56.048326   0.000632  53.756622  -0.000854  -3.475366   4.021739 -12.868290   4.830653   1.996499  -8.427002   7.234854 -13.808188 -55.492446 -179.865004 -84.951659 -179.861298  -1.600025  -6.839057  15.291168   4.369484  -4.206485  -7.300652   6.336675  -0.000007   0.000012  -8.470161  -5.044495   4.877046  -0.069550  -0.000015  -0.000001   6.523975  -1.020721   9.197594   5.412299   0.000026   0.000015 -11.298746   2.809631   1.601218   1.442543  -0.000002   0.000002
 -2.376001   0.907880   4.041540  -1.578649   6.591859  -0.575895  -2.120977   0.410524  -1.944355   2.376357  -1.583223   1.655077  -1.055936  -0.600934  -0.087181   5.485705  -4.270618  10.643483  10.990847   3.552156  56.095098  -0.000081  54.002392  -0.000030  -3.514618   3.923645 -12.900132   4.732618   2.058036  -8.332124   6.736488 -13.821750 -55.687752 -179.886195 -83.863066 -179.882659  -1.650519  -6.828906  15.391708   4.371479  -4.188926  -7.265649   6.342939  -0.000007   0.000009  -8.467756  -5.032705   4.885013  -0.071479  -0.000012  -0.000001   6.560479  -1.003159   9.234631   5.364783   0.000030   0.000017 -11.276534   2.826426   1.579530   1.446525  -0.000001   0.000001
